<?xml version="1.0" encoding="UTF-8" standalone="no"?><!DOCTYPE svg PUBLIC "-//W3C//DTD SVG 1.1//EN" "http://www.w3.org/Graphics/SVG/1.1/DTD/svg11.dtd"><svg width="100%" height="100%" viewBox="0 0 3750 2500" version="1.1" xmlns="http://www.w3.org/2000/svg" xmlnsXlink="http://www.w3.org/1999/xlink" xmlSpace="preserve" xmlnsSerif="http://www.serif.com/" style="fill-rule:evenodd;clip-rule:evenodd;stroke-linejoin:round;stroke-miterlimit:2;"><rect x="0" y="0" width="3750" height="2500" style="fill:none;fill-rule:nonzero;"/><g><path d="M1287.86,357.363c447.799,-25.992 917.287,109.37 848.279,305.595c-69.017,196.225 368.958,-69.691 543.733,1.054c124.438,50.363 74.696,203.696 134.892,265.48c138.021,141.65 279.191,-36.725 454.858,70.304c175.667,107.029 -183.987,1105.96 -367.508,1111.54l-2093.16,-12.716l-150.208,-13.5c0,0 -415.5,-227.234 -118.275,-436.846c200.971,-141.734 56.367,-244.659 34.508,-309.546c-25.096,-74.504 -83.65,-204.617 171.488,-300.1c255.141,-95.483 189.266,-303.258 182.987,-346.271c-6.266,-43.033 -89.383,-309.004 358.404,-334.992Z" style="fill:url(#_Linear1);fill-rule:nonzero;"/><path d="M1361.46,1317.55c-192.329,-70.004 -291.5,-282.65 -221.504,-474.954c69.992,-192.308 282.65,-291.459 474.979,-221.459c192.329,70.005 291.5,282.651 221.505,474.959c-69.992,192.308 -282.65,291.454 -474.98,221.454Z" style="fill:#e1e4e5;"/><path d="M1391.65,1232.67c-145.842,-53.079 -221.041,-214.325 -167.967,-360.146c53.076,-145.825 214.33,-221.008 360.167,-167.925c145.842,53.079 221.042,214.325 167.967,360.15c-53.075,145.821 -214.329,221.004 -360.167,167.921Z" style="fill:#fff;"/><path d="M1544.4,1316.31c-9.85,-30.317 6.742,-62.875 37.059,-72.726c30.312,-9.849 62.874,6.738 72.725,37.055l45.05,138.65l-109.784,35.666l-45.05,-138.645Z" style="fill:#e1e4e5;fill-rule:nonzero;"/><path d="M1721.16,1398.3c-4.484,-13.801 -19.329,-21.365 -33.13,-16.881l-117.55,38.195c-13.801,4.484 -21.365,19.329 -16.88,33.129l170.478,524.678c4.484,13.801 19.329,21.365 33.129,16.881l117.551,-38.195c13.8,-4.484 21.364,-19.329 16.88,-33.129l-170.478,-524.678Z" style="fill:#346c31;"/><path d="M2284.45,1832.82l-40.829,-64.009c-50.108,-78.555 -121.137,-141.607 -205.079,-182.045l-167.434,-80.655c-26.991,-13.003 -56.569,-19.757 -86.529,-19.758l-35.533,0l13.504,44.817l-190.263,-46.471c-22.137,-5.408 -43.929,10.05 -46.145,32.729c-1.31,13.387 4.691,26.489 15.683,34.242l52.596,37.091c-32.954,15.875 -37.525,60.955 -8.429,83.121l26.725,20.363c-25.367,15.687 -26.834,52.046 -2.813,69.725l38.771,28.537c-4.911,24.855 7.736,50.077 30.592,61.009l41.458,19.816c6.139,2.937 12.529,5.322 19.092,7.125l191.712,52.713l213.95,143.433l138.971,-241.783Z" style="fill:#f8ae9d;"/><path d="M2638.89,2108.33l-463.755,-444.067l-319.27,321.892l128.104,122.175l654.921,0Z" style="fill:#66f687;"/><circle cx="2187.5" cy="1795.83" r="25" style="fill:#fff;"/><path d="M1344.78,2073.26c-248.346,-90.662 -422.054,-306.891 -524.037,-472.308c-110.734,-179.592 -163.217,-339.771 -163.734,-341.375l-10.962,4.371c0.517,1.604 53.371,162.996 164.792,343.8c102.966,167.071 278.475,385.5 529.9,477.296l4.041,-11.784Z" style="fill:#66f671;fill-rule:nonzero;"/><path d="M666.721,1201.37c22.592,42.712 26.533,91.254 14.437,133.325c-39.475,-9.659 -76.087,-37.646 -98.683,-80.359c-22.617,-42.712 -26.562,-91.258 -14.462,-133.325c39.495,9.659 76.087,37.646 98.708,80.359Zm-24.321,163.342c41.507,16.303 74.266,49.387 90.158,91.054c-37.058,19.42 -82.641,23 -125.812,6.004c-41.498,-16.32 -74.252,-49.401 -90.158,-91.059c37.058,-19.441 82.641,-22.995 125.812,-6Zm34.054,251.171c63.817,-9.116 112.313,-39.283 108.321,-67.379c-3.996,-28.096 -58.967,-43.479 -122.783,-34.358c-63.817,9.121 -112.313,39.287 -108.321,67.379c3.996,28.096 58.967,43.479 122.783,34.358Zm87.571,142.838c63.817,-9.117 112.313,-39.284 108.317,-67.379c-3.992,-28.096 -58.963,-43.48 -122.784,-34.359c-63.816,9.121 -112.312,39.288 -108.316,67.379c3.991,28.096 58.962,43.48 122.783,34.359Z" style="fill:#66f675;fill-rule:nonzero;"/><path d="M745.296,1434.15c2.512,-45.083 21.262,-85.796 48.858,-113.587c24.542,26.854 38.809,66.97 36.296,112.054c-2.512,45.083 -21.262,85.796 -48.862,113.587c-24.563,-26.854 -38.805,-66.97 -36.292,-112.054Zm91.412,147.825c1.85,-45.108 20.034,-86.166 47.209,-114.45c24.962,26.359 39.795,66.179 37.945,111.288c-1.845,45.108 -20.033,86.166 -47.233,114.454c-24.912,-26.363 -39.767,-66.183 -37.921,-111.292Zm64.904,222.309c17.642,-9.338 37.034,-9.634 53.392,-2.521c-5,18.429 -17.221,34.883 -34.837,44.22c-17.646,9.338 -37.038,9.634 -53.396,2.517c4.975,-18.425 17.2,-34.879 34.841,-44.217Zm346.917,282.755c-96.537,-115.988 -120.221,-272.521 -123.087,-383.404c-3.121,-120.392 16.937,-214.492 17.141,-215.43l-6.666,-0.987c-0.205,0.937 -20.425,95.742 -17.313,216.925c2.879,111.983 26.821,270.121 124.55,387.55l5.375,-4.654Z" style="fill:#66f67e;fill-rule:nonzero;"/><path d="M1164.08,1462.27c-1.104,27.558 -13.083,52.646 -31.125,69.933c-16.708,-16.091 -26.746,-40.404 -25.642,-67.967c1.092,-27.562 13.075,-52.649 31.113,-69.937c16.721,16.096 26.746,40.404 25.654,67.971Zm-58.862,73.625c15.805,19.954 22.478,45.679 18.366,70.8c-23.858,-1.05 -47.379,-12.363 -63.804,-33.133c-15.796,-19.957 -22.469,-45.677 -18.367,-70.796c23.863,1.037 47.38,12.358 63.805,33.129Zm-55.255,133.712c34.109,13.809 66.696,12.838 72.784,-2.17c6.087,-15.013 -16.625,-38.371 -50.73,-52.18c-34.108,-13.808 -66.695,-12.837 -72.783,2.171c-6.091,15.013 16.625,38.371 50.729,52.179Zm2.23,95.609c34.108,13.808 66.695,12.833 72.783,-2.175c6.092,-15.009 -16.625,-38.371 -50.729,-52.179c-34.109,-13.809 -66.696,-12.834 -72.784,2.175c-6.087,15.008 16.625,38.37 50.73,52.179Z" style="fill:#66f668;fill-rule:nonzero;"/><path d="M1136.06,1599.68c14.174,-21.525 35.108,-36.237 56.699,-42.033c4.405,20.292 -0.062,44.179 -14.237,65.708c-14.175,21.525 -35.108,36.234 -56.7,42.034c-4.417,-20.3 0.067,-44.184 14.237,-65.709Zm2.7,99.171c13.855,-21.729 34.609,-36.771 56.134,-42.933c4.754,20.166 0.65,44.075 -13.204,65.804c-13.855,21.729 -34.605,36.771 -56.142,42.925c-4.733,-20.154 -0.638,-44.067 13.212,-65.796Zm-31.75,128.317c11.384,0.454 21.038,5.871 27.071,14.075c-7.758,7.662 -18.508,12.275 -29.879,11.825c-11.383,-0.45 -21.037,-5.867 -27.071,-14.075c7.742,-7.663 18.492,-12.275 29.879,-11.825Z" style="fill:#66f67f;fill-rule:nonzero;"/><path d="M1537.53,2109.07c-22.042,-30.279 -144.7,-191.25 -225.8,-220.058c-89.517,-31.8 -7.704,86.579 -7.704,86.579c0,0 -155.229,-179.513 -214.513,-165.45c-54.337,12.891 -3.554,122.841 -3.554,122.841c0,0 -58.992,-61.766 -132.637,-63.9c-71.675,-2.07 43.45,219.684 49.691,231.267l534.517,8.721Zm1257.77,-175.267c-172.9,-186.679 -226.83,-447.508 -241.621,-633.425c-16.067,-201.862 9.241,-361.533 9.491,-363.108l-11.304,-1.104c-0.262,1.6 -25.775,162.441 -9.65,365.637c14.913,187.767 69.417,451.263 244.459,640.267l8.625,-8.267Z" style="fill:#66f679;fill-rule:nonzero;"/><path d="M2597,891.938c0.638,46.37 -17.283,89.454 -46.088,119.983c-29.566,-25.621 -48.645,-65.609 -49.262,-111.967c-0.642,-46.371 17.279,-89.454 46.088,-119.983c29.575,25.6 48.62,65.6 49.262,111.967Zm-92.442,128.491c28.37,32.105 41.914,74.737 37.275,117.329c-40.25,0.23 -80.85,-16.8 -110.362,-50.304c-29.513,-33.504 -41.784,-76.508 -37.283,-117.308c40.258,-0.246 80.858,16.779 110.37,50.283Zm-81.004,229.113c58.646,20.341 113.4,15.991 122.3,-9.713c8.9,-25.708 -31.429,-63.037 -90.071,-83.375c-58.646,-20.341 -113.404,-15.992 -122.304,9.717c-8.896,25.704 31.429,63.033 90.075,83.371Zm12.354,160.3c58.646,20.341 113.4,15.991 122.3,-9.713c8.9,-25.708 -31.425,-63.037 -90.071,-83.375c-58.645,-20.342 -113.4,-15.992 -122.3,9.717c-8.899,25.704 31.426,63.033 90.071,83.371Z" style="fill:#1ee167;fill-rule:nonzero;"/><path d="M2562.21,1124.97c21.921,-37.321 55.829,-63.759 91.646,-75.292c9.242,33.7 3.867,74.179 -18.058,111.5c-21.921,37.321 -55.829,63.763 -91.646,75.292c-9.258,-33.709 -3.863,-74.179 18.058,-111.5Zm13.467,166.25c21.362,-37.634 54.937,-64.617 90.612,-76.755c9.813,33.463 5.055,73.938 -16.308,111.576c-21.362,37.633 -54.937,64.616 -90.633,76.745c-9.784,-33.42 -5.046,-73.908 16.329,-111.566Zm-41.908,218.079c19.2,-0.188 35.937,8.104 46.825,21.375c-12.363,13.504 -30.042,22.142 -49.225,22.342c-19.2,0.187 -35.934,-8.1 -46.825,-21.375c12.341,-13.513 30.025,-22.155 49.225,-22.342Zm111.058,317.792c0,0 -93.6,-206.913 -62.313,-253.08c43.246,-63.808 97.017,131.984 99.646,114.771c24.767,-162.516 19.579,-367.483 135.425,-398.541c65.846,-17.655 -4.35,153.079 3.821,197.07c8.171,43.988 117.721,-113.062 185.183,-196.162c67.459,-83.088 108.771,-37.246 69.671,63.558c-37.812,97.475 -174.812,211.696 -144.146,221.471c30.667,9.771 202.621,-126.017 228.534,-75.975c31.779,61.358 -233.109,169.671 -206.529,181.896c26.583,12.221 152.758,-45.225 152.758,3.646c0,48.871 -174.367,61.096 -169.829,82.229c7.346,34.217 116.871,-53.392 125.425,-5.908c8.746,48.558 -148.684,52.241 -143.188,90.229c3.163,21.825 42.813,-1.017 49.984,28.991c16.354,68.425 -231.738,164.321 -231.738,164.321l-92.704,-218.516Z" style="fill:#3ee475;fill-rule:nonzero;"/><path d="M2412.08,1857.44c-51.429,24.041 -37.55,83.754 -37.55,83.754c0,0 -139.429,-108.663 -191.563,-45.242c-52.133,63.425 -24.729,187.729 36.409,207.946c61.133,20.204 592.912,6.042 592.912,6.042c0,0 -353.95,-274.121 -400.208,-252.5Z" style="fill:#346c31;fill-rule:nonzero;"/><path d="M2646.22,2104.14c0,0 163.329,-209.263 231.596,-241.334c72.75,-34.17 9.671,84.23 9.671,84.23c0,0 155.55,-152.505 192.087,-114.425c36.538,38.075 -2.479,73.708 -2.479,73.708c0,0 130.25,-24.158 149.25,24.55c29.183,74.833 -185.054,112.046 -185.054,112.046c0,0 102.633,-22.479 82.096,23.85c-30.959,69.854 -477.167,37.375 -477.167,37.375Z" style="fill:#66f668;fill-rule:nonzero;"/><path d="M2812.28,2109.42c0,0 -260.254,18.362 -310.933,-28.146c-50.696,-46.508 -0.408,-130.771 -0.408,-130.771c0,0 -89.309,-70.454 -87.921,-116.458c1.387,-46.004 59.571,-22.658 59.571,-22.658c0,0 -98.604,-126.717 -75.229,-150.825c43.566,-44.88 157.57,86.833 157.57,86.833c0,0 -33.829,-62.658 1.859,-72.604c53.829,-15.009 93.433,139.525 93.433,139.525c0,0 -10.046,-61.029 27.063,-52.921c66.6,14.537 134.995,348.025 134.995,348.025Z" style="fill:#66f66b;fill-rule:nonzero;"/><circle cx="910.967" cy="1164.83" r="39.438" style="fill:#66f681;"/><circle cx="1660.28" cy="494.392" r="21.908" style="fill:#e1e4e5;"/><circle cx="2703.19" cy="682.813" r="21.908" style="fill:#e1e4e5;"/><circle cx="807.992" cy="794.554" r="19.721" style="fill:#e1e4e5;"/><path d="M2119.83,655.334c35.967,9.637 72.992,-11.739 82.629,-47.706c9.638,-35.967 -11.739,-72.992 -47.706,-82.629c-35.967,-9.638 -72.992,11.739 -82.629,47.706c-9.637,35.967 11.739,72.992 47.706,82.629Z" style="fill:#66f686;"/></g><defs><linearGradient id="_Linear1" x1="0" y1="0" x2="1" y2="0" gradientUnits="userSpaceOnUse" gradientTransform="matrix(-33.025,-4654.23,4654.23,-33.025,1936.48,3096.5)"><stop offset="0" style="stop-color:#fff;stop-opacity:1"/><stop offset="1" style="stop-color:#eee;stop-opacity:1"/></linearGradient></defs></svg>