<?xml version="1.0" encoding="utf-8"?>
<svg width="1516px" height="1010.66675px" viewBox="0 0 1516 1010.66675" version="1.1" xmlns:xlink="http://www.w3.org/1999/xlink" xmlns="http://www.w3.org/2000/svg">
  <defs>
    <linearGradient x1="0.52132326" y1="1.5606544" x2="0.5098695" y2="-1.0880566" id="gradient_1">
      <stop offset="0%" stop-color="#FFFFFF" />
      <stop offset="100%" stop-color="#EEEEEE" />
    </linearGradient>
  </defs>
  <g id="empty">
    <path d="M0 0L1516 0L1516 1010.67L0 1010.67L0 0Z" id="Rectangle" fill="none" fill-rule="evenodd" stroke="none" />
    <g id="Group" transform="translate(175.18152 143.17838)">
      <path d="M345.457 1.29156C526.488 -9.21614 716.286 45.5062 688.388 124.833C660.487 204.161 837.546 96.6597 908.201 125.26C958.508 145.62 938.399 207.607 962.734 232.584C1018.53 289.849 1075.6 217.738 1146.62 261.006C1217.63 304.274 1072.24 708.109 998.047 710.365L151.852 705.224L91.1275 699.766C91.1275 699.766 -76.8453 607.903 43.3129 523.164C124.559 465.866 66.1002 424.257 57.2633 398.025C47.1178 367.905 23.4464 315.305 126.59 276.704C229.735 238.104 203.104 154.107 200.566 136.719C198.033 119.322 164.431 11.7985 345.457 1.29244L345.457 1.29156Z" id="Shape" fill="url(#gradient_1)" stroke="none" />
      <path d="M375.211 389.463C297.459 361.163 257.368 275.197 285.665 197.455C313.96 119.711 399.931 79.628 477.683 107.927C555.435 136.227 595.527 222.193 567.23 299.937C538.935 377.68 452.964 417.762 375.211 389.463L375.211 389.463Z" id="Shape" fill="#E1E4E5" fill-rule="evenodd" stroke="none" />
      <path d="M387.416 355.149C328.457 333.691 298.057 268.505 319.513 209.554C340.97 150.602 406.159 120.208 465.116 141.667C524.075 163.126 554.476 228.312 533.02 287.264C511.563 346.215 446.374 376.609 387.416 355.149L387.416 355.149Z" id="Shape" fill="#FFFFFF" fill-rule="evenodd" stroke="none" />
      <path d="M449.168 388.962C445.186 376.706 451.894 363.544 464.15 359.561C476.404 355.58 489.568 362.285 493.55 374.541L511.762 430.593L467.38 445.012L449.168 388.962L449.168 388.962Z" id="Shape" fill="#E1E4E5" stroke="none" />
      <path d="M520.626 422.108C518.814 416.528 512.812 413.47 507.233 415.283L459.711 430.724C454.132 432.537 451.074 438.538 452.887 444.117L521.806 656.227C523.619 661.806 529.62 664.864 535.199 663.051L582.721 647.61C588.3 645.798 591.358 639.796 589.545 634.218L520.626 422.108L520.626 422.108Z" id="Shape" fill="#346C31" fill-rule="evenodd" stroke="none" />
      <path d="M748.346 597.77L731.84 571.893C711.583 540.136 682.868 514.646 648.933 498.298L581.245 465.692C570.334 460.436 558.376 457.705 546.264 457.705L531.9 457.705L537.359 475.823L460.442 457.036C451.492 454.85 442.683 461.099 441.787 470.267C441.257 475.679 443.683 480.976 448.127 484.11L469.39 499.105C456.068 505.523 454.22 523.747 465.982 532.708L476.786 540.94C466.531 547.282 465.938 561.98 475.649 569.127L491.323 580.664C489.337 590.712 494.45 600.908 503.69 605.328L520.45 613.339C522.932 614.526 525.515 615.49 528.169 616.219L605.671 637.529L692.164 695.515L748.346 597.77L748.346 597.77Z" id="Shape" fill="#F8AE9D" fill-rule="evenodd" stroke="none" />
      <path d="M891.634 709.149L704.153 529.628L575.083 659.758L626.871 709.149L891.634 709.149L891.634 709.149Z" id="Shape" fill="#66F687" fill-rule="evenodd" stroke="none" />
      <path d="M699.045 582.816C699.045 577.234 703.57 572.709 709.152 572.709C714.734 572.709 719.258 577.234 719.258 582.816C719.258 588.398 714.734 592.923 709.152 592.923C703.57 592.923 699.045 588.398 699.045 582.816Z" id="Circle" fill="#FFFFFF" fill-rule="evenodd" stroke="none" />
      <path d="M368.468 694.971C268.07 658.32 197.846 570.906 156.618 504.033C111.851 431.43 90.6344 366.675 90.4253 366.027L85.9938 367.794C86.2028 368.442 107.57 433.687 152.614 506.781C194.239 574.322 265.192 662.625 366.835 699.735L368.468 694.971L368.468 694.971Z" id="Shape" fill="#66F671" stroke="none" />
      <path d="M94.3515 342.496C103.485 359.763 105.078 379.386 100.188 396.394C84.2295 392.49 69.4285 381.175 60.2937 363.908C51.1504 346.641 49.5555 327.015 54.4472 310.009C70.4137 313.914 85.2066 325.228 94.3515 342.496L94.3515 342.496ZM84.5194 408.529C101.299 415.12 114.543 428.495 120.967 445.339C105.986 453.19 87.5583 454.637 70.1057 447.767C53.3294 441.169 40.088 427.795 33.6578 410.954C48.6391 403.095 67.0668 401.658 84.5194 408.529L84.5194 408.529ZM98.2863 510.069C124.085 506.384 143.691 494.189 142.077 482.83C140.461 471.472 118.238 465.253 92.4397 468.94C66.6406 472.628 47.0353 484.823 48.6492 496.18C50.2646 507.538 72.4876 513.757 98.2863 510.069L98.2863 510.069ZM133.688 567.814C159.487 564.128 179.093 551.933 177.477 540.575C175.863 529.217 153.641 522.997 127.84 526.685C102.041 530.372 82.4358 542.568 84.0513 553.924C85.6647 565.282 107.888 571.501 133.688 567.814L133.688 567.814Z" id="Shape" fill="#66F675" fill-rule="evenodd" stroke="none" />
      <path d="M126.117 436.601C127.132 418.375 134.712 401.916 145.868 390.681C155.79 401.537 161.558 417.755 160.542 435.981C159.526 454.207 151.946 470.665 140.788 481.9C130.858 471.044 125.101 454.827 126.117 436.601L126.117 436.601ZM163.072 496.362C163.82 478.126 171.171 461.527 182.157 450.093C192.248 460.749 198.244 476.847 197.497 495.083C196.751 513.319 189.398 529.917 178.402 541.353C168.331 530.695 162.325 514.598 163.072 496.362L163.072 496.362ZM189.31 586.234C196.442 582.459 204.282 582.339 210.895 585.214C208.873 592.665 203.933 599.317 196.811 603.091C189.678 606.866 181.838 606.986 175.225 604.109C177.236 596.66 182.178 590.008 189.31 586.233L189.31 586.234ZM329.557 700.542C290.53 653.652 280.956 590.371 279.797 545.545C278.535 496.874 286.644 458.833 286.727 458.453L284.032 458.054C283.949 458.433 275.775 496.76 277.033 545.75C278.197 591.021 287.876 654.951 327.384 702.424L329.557 700.542L329.557 700.542Z" id="Shape" fill="#66F67E" fill-rule="evenodd" stroke="none" />
      <path d="M295.417 447.969C294.971 459.11 290.128 469.252 282.834 476.24C276.08 469.735 272.022 459.906 272.468 448.764C272.91 437.621 277.754 427.479 285.046 420.49C291.806 426.997 295.859 436.824 295.417 447.969L295.417 447.969ZM271.621 477.733C278.011 485.8 280.708 496.199 279.046 506.355C269.401 505.931 259.892 501.357 253.252 492.96C246.866 484.892 244.169 474.495 245.827 464.34C255.474 464.759 264.981 469.336 271.621 477.733L271.621 477.733ZM249.284 531.788C263.073 537.371 276.247 536.978 278.708 530.911C281.168 524.842 271.987 515.399 258.199 509.816C244.411 504.234 231.237 504.627 228.776 510.694C226.313 516.763 235.496 526.206 249.284 531.788L249.284 531.788ZM250.185 570.44C263.974 576.022 277.148 575.628 279.609 569.56C282.072 563.493 272.888 554.048 259.101 548.466C245.312 542.884 232.138 543.278 229.677 549.346C227.216 555.413 236.398 564.857 250.185 570.44L250.185 570.44Z" id="Shape" fill="#66F668" fill-rule="evenodd" stroke="none" />
      <path d="M284.09 503.519C289.82 494.817 298.283 488.87 307.011 486.526C308.792 494.73 306.986 504.386 301.256 513.09C295.525 521.792 287.063 527.738 278.334 530.083C276.548 521.876 278.361 512.221 284.089 503.519L284.09 503.519ZM285.181 543.61C290.782 534.826 299.173 528.745 307.874 526.254C309.796 534.407 308.137 544.072 302.536 552.856C296.935 561.641 288.547 567.722 279.84 570.21C277.927 562.062 279.582 552.395 285.181 543.61L285.181 543.61ZM272.346 595.485C276.948 595.668 280.851 597.858 283.29 601.175C280.153 604.272 275.807 606.137 271.211 605.955C266.609 605.773 262.706 603.584 260.267 600.265C263.396 597.167 267.742 595.303 272.346 595.485L272.346 595.485Z" id="Shape" fill="#66F67F" fill-rule="evenodd" stroke="none" />
      <path d="M446.391 709.448C437.48 697.208 387.893 632.132 355.107 620.486C318.919 607.631 351.993 655.487 351.993 655.487C351.993 655.487 289.239 582.916 265.272 588.601C243.306 593.813 263.836 638.262 263.836 638.262C263.836 638.262 239.987 613.292 210.215 612.429C181.239 611.592 227.78 701.24 230.303 705.923L446.391 709.448L446.391 709.448ZM954.865 638.594C884.967 563.126 863.165 457.681 857.186 382.521C850.69 300.915 860.922 236.365 861.023 235.729L856.453 235.282C856.347 235.929 846.033 300.952 852.552 383.097C858.581 459.005 880.615 565.528 951.378 641.936L954.865 638.594L954.865 638.594Z" id="Shape" fill="#66F679" fill-rule="evenodd" stroke="none" />
      <path d="M874.699 217.402C874.957 236.148 867.712 253.566 856.067 265.908C844.115 255.55 836.402 239.384 836.152 220.643C835.893 201.897 843.138 184.48 854.784 172.138C866.74 182.487 874.44 198.658 874.699 217.402L874.699 217.402ZM837.328 269.347C848.797 282.326 854.272 299.561 852.397 316.779C836.125 316.872 819.712 309.988 807.781 296.443C795.85 282.898 790.889 265.513 792.709 249.019C808.984 248.92 825.397 255.803 837.328 269.347L837.328 269.347ZM804.581 361.97C828.289 370.193 850.424 368.435 854.023 358.043C857.62 347.65 841.317 332.56 817.61 324.338C793.901 316.114 771.764 317.873 768.166 328.266C764.57 338.657 780.872 353.748 804.581 361.97L804.581 361.97ZM809.575 426.774C833.284 434.997 855.419 433.238 859.017 422.847C862.615 412.454 846.313 397.363 822.604 389.141C798.896 380.918 776.76 382.676 773.162 393.07C769.565 403.461 785.867 418.552 809.575 426.774L809.575 426.774Z" id="Shape" fill="#1EE167" fill-rule="evenodd" stroke="none" />
      <path d="M860.634 311.609C869.496 296.522 883.204 285.834 897.684 281.171C901.42 294.795 899.247 311.159 890.383 326.247C881.522 341.335 867.814 352.024 853.334 356.685C849.591 343.058 851.772 326.697 860.634 311.609L860.634 311.609ZM866.079 378.819C874.715 363.605 888.288 352.696 902.71 347.789C906.677 361.317 904.754 377.68 896.117 392.896C887.481 408.109 873.908 419.018 859.477 423.921C855.522 410.411 857.438 394.043 866.079 378.819L866.079 378.819ZM849.137 466.981C856.899 466.905 863.665 470.257 868.067 475.622C863.069 481.081 855.922 484.573 848.166 484.654C840.405 484.73 833.64 481.38 829.237 476.013C834.226 470.55 841.375 467.056 849.137 466.981L849.137 466.981ZM894.034 595.454C894.034 595.454 856.194 511.806 868.843 493.142C886.326 467.346 908.063 546.499 909.126 539.54C919.139 473.84 917.041 390.979 963.874 378.423C990.493 371.286 962.115 440.308 965.419 458.092C968.722 475.875 1013.01 412.385 1040.28 378.79C1067.55 345.2 1084.25 363.733 1068.45 404.484C1053.16 443.89 997.777 490.066 1010.17 494.018C1022.57 497.968 1092.09 443.073 1102.56 463.304C1115.41 488.109 1008.32 531.896 1019.07 536.838C1029.82 541.779 1080.83 518.555 1080.83 538.312C1080.83 558.069 1010.33 563.011 1012.17 571.555C1015.14 585.387 1059.42 549.97 1062.87 569.166C1066.41 588.797 1002.77 590.286 1004.99 605.643C1006.27 614.466 1022.3 605.232 1025.19 617.363C1031.81 645.025 931.511 683.792 931.511 683.792L894.034 595.454L894.034 595.454Z" id="Shape" fill="#3EE475" fill-rule="evenodd" stroke="none" />
      <path d="M799.942 607.723C779.151 617.442 784.762 641.582 784.762 641.582C784.762 641.582 728.396 597.653 707.319 623.292C686.244 648.933 697.322 699.185 722.038 707.358C746.752 715.525 961.733 709.8 961.733 709.8C961.733 709.8 818.643 598.982 799.942 607.723L799.942 607.723Z" id="Shape" fill="#346C31" stroke="none" />
      <path d="M894.597 707.455C894.597 707.455 960.626 622.857 988.224 609.892C1017.63 596.078 992.133 643.943 992.133 643.943C992.133 643.943 1055.02 582.291 1069.79 597.685C1084.56 613.078 1068.79 627.483 1068.79 627.483C1068.79 627.483 1121.44 617.717 1129.12 637.408C1140.92 667.66 1054.31 682.704 1054.31 682.704C1054.31 682.704 1095.8 673.617 1087.5 692.346C1074.98 720.586 894.597 707.455 894.597 707.455L894.597 707.455Z" id="Shape" fill="#66F668" stroke="none" />
      <path d="M961.73 709.59C961.73 709.59 856.518 717.013 836.03 698.211C815.535 679.41 835.865 645.345 835.865 645.345C835.865 645.345 799.76 616.863 800.321 598.265C800.882 579.667 824.404 589.105 824.404 589.105C824.404 589.105 784.542 537.878 793.991 528.132C811.604 509.988 857.692 563.235 857.692 563.235C857.692 563.235 844.016 537.905 858.443 533.884C880.205 527.816 896.215 590.289 896.215 590.289C896.215 590.289 892.154 565.617 907.156 568.895C934.08 574.772 961.73 709.59 961.73 709.59L961.73 709.59Z" id="Shape" fill="#66F66B" stroke="none" />
      <path d="M177.149 327.724C177.149 318.918 184.287 311.78 193.092 311.78C201.897 311.78 209.036 318.918 209.036 327.724C209.036 336.529 201.897 343.667 193.092 343.667C184.287 343.667 177.149 336.529 177.149 327.724Z" id="Circle" fill="#66F681" fill-rule="evenodd" stroke="none" />
      <path d="M487.158 56.6878C487.158 51.7964 491.123 47.8311 496.015 47.8311C500.906 47.8311 504.871 51.7964 504.871 56.6878C504.871 61.5792 500.906 65.5445 496.015 65.5445C491.123 65.5445 487.158 61.5792 487.158 56.6878Z" id="Circle" fill="#E1E4E5" fill-rule="evenodd" stroke="none" />
      <path d="M908.772 132.86C908.772 127.969 912.737 124.004 917.628 124.004C922.52 124.004 926.485 127.969 926.485 132.86C926.485 137.752 922.52 141.717 917.628 141.717C912.737 141.717 908.772 137.752 908.772 132.86Z" id="Circle" fill="#E1E4E5" fill-rule="evenodd" stroke="none" />
      <path d="M143.49 178.033C143.49 173.63 147.06 170.061 151.463 170.061C155.866 170.061 159.435 173.63 159.435 178.033C159.435 182.436 155.866 186.006 151.463 186.006C147.06 186.006 143.49 182.436 143.49 178.033Z" id="Circle" fill="#E1E4E5" fill-rule="evenodd" stroke="none" />
      <path d="M681.795 121.751C696.335 125.647 711.303 117.006 715.199 102.465C719.096 87.9251 710.454 72.9571 695.913 69.0612C681.373 65.1649 666.405 73.8069 662.509 88.3472C658.613 102.887 667.255 117.855 681.795 121.751L681.795 121.751Z" id="Shape" fill="#66F686" fill-rule="evenodd" stroke="none" />
    </g>
  </g>
</svg>